<?xml version="1.0" encoding="UTF-8"?>
<svg version="1.1" xmlns="http://www.w3.org/2000/svg" width="248" height="216">
<path d="M0 0 C0.928125 0.144375 1.85625 0.28875 2.8125 0.4375 C4.20766139 0.62993605 5.60360781 0.81670845 7 1 C7.88042969 1.11859375 8.76085937 1.2371875 9.66796875 1.359375 C15.4759979 2.03230527 19.35842308 1.65356565 25 0 C31.80989675 -0.45919151 38.65763451 -0.75755021 45 2 C47.94924691 5.12409536 48.57063185 7.83764584 49.18261719 12.03442383 C49.45739899 13.86200981 49.45739899 13.86200981 49.73773193 15.72651672 C49.92465614 17.05327848 50.11102342 18.38011881 50.296875 19.70703125 C50.49601521 21.07470962 50.69591725 22.44227727 50.89654541 23.80973816 C51.31411286 26.67429062 51.72330751 29.53987906 52.12646484 32.40649414 C52.64181261 36.06691486 53.17641005 39.72420316 53.71720505 43.38094044 C54.13289443 46.20502263 54.53892487 49.03042909 54.94205475 51.85632896 C55.13542881 53.20462915 55.33158789 54.55253313 55.53066254 55.90000343 C55.80842311 57.79107265 56.07195046 59.68421557 56.33496094 61.57739258 C56.48801697 62.65120682 56.641073 63.72502106 56.79876709 64.83137512 C57.06539138 69.02965641 57.02657745 73.23200549 54.875 76.9375 C51.81547541 78.6712306 49.43182475 78.42145216 46 78 C43.625 76.4375 43.625 76.4375 42 74 C41.6169455 71.67431197 41.27856634 69.34050344 41 67 C40.99413376 67.78625259 40.98826752 68.57250519 40.98222351 69.38258362 C40.92418723 76.81226702 40.85204858 84.24161924 40.76428509 91.6710062 C40.71966237 95.49004038 40.68038888 99.30896988 40.65356445 103.12817383 C40.62744999 106.81773823 40.58699129 110.50689803 40.53681374 114.19621086 C40.52019976 115.59987268 40.50865153 117.00360439 40.50238609 118.40735054 C40.42415525 134.33126223 40.42415525 134.33126223 35.25 139.875 C32.02540301 141.4872985 29.61784404 141.93868061 26 142 C22.65213434 140.79854821 19.79100768 139.22487939 17.81497192 136.16497803 C16.86818818 133.64984107 16.75910732 131.73318079 16.77294922 129.04785156 C16.77310028 128.06713684 16.77325134 127.08642212 16.77340698 126.07598877 C16.78372955 125.02481873 16.79405212 123.97364868 16.8046875 122.890625 C16.8075174 121.80867859 16.81034729 120.72673218 16.81326294 119.61199951 C16.82445391 116.15788696 16.8495568 112.70403412 16.875 109.25 C16.88503119 106.90755583 16.8941568 104.56510759 16.90234375 102.22265625 C16.9243897 96.48168229 16.95785666 90.7408597 17 85 C15.68 85 14.36 85 13 85 C13.00888245 85.60055206 13.01776489 86.20110413 13.0269165 86.81985474 C13.11554711 93.08162906 13.17579949 99.34322461 13.21972656 105.60546875 C13.23981709 107.94115438 13.26709461 110.27678987 13.30175781 112.61230469 C13.35038691 115.97343331 13.37299492 119.33389575 13.390625 122.6953125 C13.41127014 123.73615997 13.43191528 124.77700745 13.45318604 125.84939575 C13.45504665 131.88813414 13.07141898 135.42316996 9 140 C5.90014474 141.92693706 4.16825346 142.00600905 0.5 141.875 C-3.41353045 140.89661739 -5.2370055 139.9208799 -8 137 C-9.87887974 132.47801486 -10.26991555 128.5573737 -10.32226562 123.68457031 C-10.33219543 122.97799286 -10.34212524 122.27141541 -10.35235596 121.54342651 C-10.38140179 119.22161869 -10.39516992 116.90008415 -10.40625 114.578125 C-10.41190475 113.77969933 -10.41755951 112.98127365 -10.42338562 112.15865326 C-10.45329225 107.93257846 -10.47179917 103.70663882 -10.48046875 99.48046875 C-10.49142202 95.13831016 -10.53946111 90.79741103 -10.59641266 86.45564651 C-10.63385691 83.09593208 -10.64408662 79.73651518 -10.6471405 76.3766098 C-10.65315266 74.777139 -10.66907047 73.17767084 -10.69551086 71.57840729 C-10.84558605 61.80269232 -9.98841315 55.08312259 -4 47 C0.7347346 37.91330895 2.34413243 29.19768045 2.25 19 C2.26160156 17.74316406 2.26160156 17.74316406 2.2734375 16.4609375 C2.25560014 10.69947123 1.41857389 5.58422738 0 0 Z " fill="#FFFFFF" transform="translate(177,42)"/>
<path d="M0 0 C0.65484375 0.44730469 1.3096875 0.89460938 1.984375 1.35546875 C16.63524357 11.06063451 32.34031983 16.73891978 50.03515625 13.27734375 C61.02299738 10.84954177 69.99507869 6.70579246 79 0 C79.33 0 79.66 0 80 0 C80.76599061 4.74799852 81.51414008 9.4983441 82.24609375 14.25170898 C82.49742403 15.86738049 82.75356185 17.48231191 83.01464844 19.09643555 C83.38971656 21.42056949 83.74725222 23.74684136 84.1015625 26.07421875 C84.22125397 26.79212082 84.34094543 27.51002289 84.46426392 28.24967957 C85.08297422 32.44823958 85.05424348 35.2477028 83 39 C81.3125 40.875 81.3125 40.875 79 42 C75.70114448 41.88425068 73.1443382 41.77106598 70.359375 39.89453125 C68.31048127 37.03903281 68.22476003 34.26914177 67.8125 30.8125 C67.65394531 29.54019531 67.49539062 28.26789063 67.33203125 26.95703125 C67.22246094 25.98121094 67.11289063 25.00539062 67 24 C66.99635437 24.9513382 66.99270874 25.90267639 66.98895264 26.88284302 C66.95197583 35.85802531 66.89417392 44.83286535 66.81609726 53.80778694 C66.77662527 58.4216769 66.74443547 63.0353761 66.72900391 67.64941406 C66.71383541 72.10410277 66.67938668 76.55826699 66.63169098 81.01272202 C66.61687913 82.71027945 66.60895909 84.40791176 66.60811615 86.1055336 C66.60574406 88.48775075 66.57864743 90.8685213 66.54589844 93.25048828 C66.55344398 94.2981411 66.55344398 94.2981411 66.56114197 95.36695862 C66.45576642 100.33654248 65.1190956 103.17510525 62 107 C57.75417853 109.83054764 53.98515163 109.77409187 49 109 C45.37740096 107.1162485 43.31024369 104.93073106 42 101 C41.91229823 99.29716578 41.88234607 97.59107252 41.88647461 95.88598633 C41.88655014 94.84513382 41.88662567 93.80428131 41.88670349 92.73188782 C41.89186478 91.60993515 41.89702606 90.48798248 41.90234375 89.33203125 C41.9037587 88.18208176 41.90517365 87.03213226 41.90663147 85.84733582 C41.91223571 82.16903092 41.92478896 78.49078655 41.9375 74.8125 C41.94251445 72.32096442 41.94707745 69.82942789 41.95117188 67.33789062 C41.96220653 61.22523971 41.97894882 55.11262418 42 49 C40.68 49 39.36 49 38 49 C38.00888245 49.60863892 38.01776489 50.21727783 38.0269165 50.84436035 C38.1157068 57.20376148 38.17586542 63.56298525 38.21972656 69.92285156 C38.23978826 72.29336709 38.26704426 74.66383345 38.30175781 77.03417969 C38.35051418 80.44999351 38.37302399 83.86515055 38.390625 87.28125 C38.41127014 88.33364868 38.43191528 89.38604736 38.45318604 90.47033691 C38.45503825 96.60362769 38.014765 102.08269094 34 107 C29.760318 109.51409644 25.82816783 109.81166773 21 109 C17.45572567 107.25408897 15.39280093 104.94236267 13.85977173 101.26449585 C12.91819611 97.68939609 12.72117625 94.58860707 12.68115234 90.89306641 C12.67110672 90.20944031 12.6610611 89.52581421 12.65071106 88.82147217 C12.62003591 86.58151015 12.60288815 84.34166678 12.5859375 82.1015625 C12.56721319 80.54071035 12.54763884 78.97986819 12.5272522 77.41903687 C12.47605826 73.32564193 12.43636468 69.23221423 12.39910889 65.13867188 C12.35898907 60.95564756 12.30793323 56.77275807 12.2578125 52.58984375 C12.16120418 44.39332148 12.07675147 36.19673215 12 28 C11.83564453 29.03060547 11.83564453 29.03060547 11.66796875 30.08203125 C11.43013672 31.43361328 11.43013672 31.43361328 11.1875 32.8125 C11.03667969 33.70582031 10.88585937 34.59914062 10.73046875 35.51953125 C9.9315377 38.23247893 9.22328336 39.2960237 7 41 C3.34371434 42.11278259 1.68460779 42.31948363 -1.8125 40.6875 C-4 39 -4 39 -5 37 C-4.94756584 28.54499173 -3.67988201 20.1070214 -2.5 11.75 C-2.36948242 10.82082764 -2.23896484 9.89165527 -2.10449219 8.93432617 C-1.97719727 8.06396729 -1.84990234 7.1936084 -1.71875 6.296875 C-1.54762695 5.12656738 -1.54762695 5.12656738 -1.37304688 3.93261719 C-1 2 -1 2 0 0 Z " fill="#FFFFFF" transform="translate(79,107)"/>
<path d="M0 0 C11.35331069 9.83155669 20.21357056 21.90478023 21.68969727 37.30053711 C22.52987359 54.79796717 19.22584191 70.01182276 7.71875 83.74609375 C-2.34362614 94.41831086 -16.07273221 101.2154648 -30.7421875 102.21484375 C-44.04268336 102.56717477 -58.11598219 100.04289745 -68.62109375 91.24609375 C-70.42351935 89.76622011 -70.42351935 89.76622011 -72.43994141 90.26928711 C-74.65273485 91.0383142 -76.06469507 91.93297284 -77.90234375 93.375 C-78.5478418 93.87555908 -79.19333984 94.37611816 -79.85839844 94.8918457 C-80.55481445 95.44187256 -81.25123047 95.99189941 -81.96875 96.55859375 C-83.50357172 97.75173254 -85.03874374 98.94442081 -86.57421875 100.13671875 C-87.38294434 100.76771484 -88.19166992 101.39871094 -89.02490234 102.04882812 C-93.25290907 105.33370847 -97.51858313 108.56890324 -101.78125 111.80859375 C-103.54442737 113.15083607 -105.30744627 114.49328656 -107.0703125 115.8359375 C-107.95879883 116.51253418 -108.84728516 117.18913086 -109.76269531 117.88623047 C-112.65311376 120.08896382 -115.54159036 122.29422413 -118.4296875 124.5 C-119.38842773 125.23178467 -120.34716797 125.96356934 -121.33496094 126.7175293 C-123.17991045 128.12582799 -125.02433356 129.53481663 -126.86816406 130.94458008 C-128.11291504 131.89433716 -128.11291504 131.89433716 -129.3828125 132.86328125 C-130.11322754 133.42128418 -130.84364258 133.97928711 -131.59619141 134.55419922 C-136.12022068 137.92524602 -136.12022068 137.92524602 -139.38671875 138.48828125 C-143.71306798 137.81111354 -145.34890466 135.45009349 -147.84375 132.12109375 C-148.28525391 131.56550781 -148.72675781 131.00992188 -149.18164062 130.4375 C-152.64858935 126.03081172 -154.04621764 123.6750424 -153.53125 117.99609375 C-152.125 116.08203125 -152.125 116.08203125 -150.03125 114.37109375 C-149.20109375 113.68789062 -148.3709375 113.0046875 -147.515625 112.30078125 C-142.74498046 108.61664476 -137.94189692 104.98138251 -133.09765625 101.39453125 C-128.09852255 97.68814484 -123.16020218 93.9038324 -118.21875 90.12109375 C-108.41093258 82.62540943 -98.49690907 75.28021624 -88.53125 67.99609375 C-88.66402344 67.33222656 -88.79679687 66.66835937 -88.93359375 65.984375 C-89.46614583 63.32161458 -89.99869792 60.65885417 -90.53125 57.99609375 C-90.71397461 57.13056885 -90.89669922 56.26504395 -91.08496094 55.37329102 C-93.98416407 39.93043494 -89.55834508 25.14783146 -81.53125 11.99609375 C-72.22764209 -0.52494586 -59.60176586 -8.49713457 -44.28125 -11.31640625 C-28.38790102 -13.38945177 -12.68121147 -10.03929241 0 0 Z M-67.53125 8.99609375 C-68.14871094 9.49625 -68.76617187 9.99640625 -69.40234375 10.51171875 C-78.18813581 18.26043513 -82.83367262 30.54765654 -83.77734375 41.9765625 C-84.26520815 54.35057764 -80.60764586 64.92515254 -73.53125 74.99609375 C-73.09167969 75.63160156 -72.65210937 76.26710938 -72.19921875 76.921875 C-65.38193006 85.78238566 -54.2677365 90.97787988 -43.65625 93.74609375 C-29.41501062 94.8853929 -16.50973496 92.83304378 -4.89453125 83.98828125 C4.55644016 75.87937604 10.75082978 66.22673473 13.46875 53.99609375 C14.48814577 37.28468762 11.96323233 23.73885464 0.5078125 10.77734375 C-18.78008175 -7.86523062 -47.42104803 -8.59563433 -67.53125 8.99609375 Z " fill="#FFFFFF" transform="translate(153.53125,16.00390625)"/>
<path d="M0 0 C4.92217843 1.19084962 8.91764815 0.63807814 13.875 -0.0625 C15.58280128 -0.25478577 17.29111717 -0.44257609 19 -0.625 C20.918125 -0.8415625 20.918125 -0.8415625 22.875 -1.0625 C22.730625 -0.35867187 22.58625 0.34515625 22.4375 1.0703125 C20.43856072 11.70355896 19.73845759 22.20687928 22.53515625 32.75390625 C22.98251039 35.62828515 22.91191766 37.18632331 21.875 39.9375 C19.72648341 41.99065941 17.67406865 43.72852832 15.3125 45.5 C14.64863281 46.01377197 13.98476563 46.52754395 13.30078125 47.05688477 C11.16984206 48.6987355 9.02411591 50.31953441 6.875 51.9375 C5.43873414 53.0285564 4.00253563 54.11970147 2.56640625 55.2109375 C-1.31246194 58.14493604 -5.20672373 61.05635295 -9.125 63.9375 C-9.76953125 64.41848145 -10.4140625 64.89946289 -11.078125 65.39501953 C-15.89599798 68.9375 -15.89599798 68.9375 -18.125 68.9375 C-18.455 66.9575 -18.785 64.9775 -19.125 62.9375 C-19.12757812 63.52917969 -19.13015625 64.12085937 -19.1328125 64.73046875 C-19.43718179 70.94974795 -19.43718179 70.94974795 -21.31640625 73.6484375 C-23.8510284 75.93820059 -25.96800111 76.90979431 -29.3125 77.5 C-32.125 76.9375 -32.125 76.9375 -34 75.4375 C-37.2269197 68.26656733 -34.3708685 58.41427556 -33.296875 50.953125 C-33.10466245 49.60650818 -32.91246297 48.2598895 -32.72027588 46.91326904 C-32.31774507 44.10542536 -31.91001491 41.29838764 -31.49951172 38.49169922 C-30.97542749 34.90047203 -30.47228304 31.30663462 -29.9738884 27.71176529 C-29.58531041 24.93569042 -29.18178941 22.16193659 -28.77414703 19.38860321 C-28.48900336 17.42253756 -28.21955835 15.4542157 -27.95037842 13.48590088 C-27.77049377 12.29075867 -27.59060913 11.09561646 -27.40527344 9.86425781 C-27.25427185 8.81361145 -27.10327026 7.76296509 -26.94769287 6.68048096 C-25.97278055 3.42997762 -24.74450823 2.05261987 -22.125 -0.0625 C-15.44175973 -2.06747208 -6.68601507 -2.01124031 0 0 Z " fill="#FFFFFF" transform="translate(37.125,43.0625)"/>
<path d="M0 0 C1.125 1.86328125 1.125 1.86328125 2 4.3125 C2.48919922 5.65054688 2.48919922 5.65054688 2.98828125 7.015625 C4.41050838 11.21092046 5.81882752 15.40948048 7.16796875 19.62890625 C7.78190289 21.92626568 7.78190289 21.92626568 9 23 C9.66 17.72 10.32 12.44 11 7 C12.32 7 13.64 7 15 7 C15.66 12.28 16.32 17.56 17 23 C17.53109375 21.35128906 18.0621875 19.70257813 18.609375 18.00390625 C19.32205626 15.85648509 20.03564494 13.70936494 20.75 11.5625 C21.27207031 9.92958008 21.27207031 9.92958008 21.8046875 8.26367188 C22.32675781 6.71196289 22.32675781 6.71196289 22.859375 5.12890625 C23.17358398 4.17056885 23.48779297 3.21223145 23.81152344 2.22485352 C25 0 25 0 26.91308594 -0.83081055 C30.1743315 -1.09520493 33.25317027 -0.75209243 36.5 -0.375 C38.46453125 -0.17003906 38.46453125 -0.17003906 40.46875 0.0390625 C44 1 44 1 46.359375 3.0703125 C49.66999731 8.98213805 50.68813516 16.2658696 50 23 C46.15586606 31.50056999 36.07928993 36.49032138 27.75 39.8125 C14.98933649 43.85337678 3.05580972 42.27713022 -9.0625 36.9375 C-15.08709733 33.72696017 -22.4065773 28.67284635 -24.6953125 21.9609375 C-24.75640855 19.84003193 -24.45317759 18.07328749 -24 16 C-23.8865625 15.07574219 -23.773125 14.15148437 -23.65625 13.19921875 C-22.64926156 5.88887 -22.64926156 5.88887 -20.359375 2.75390625 C-17.26243682 0.45171214 -14.81294518 0.15200074 -11 -0.3125 C-9.1746875 -0.55419922 -9.1746875 -0.55419922 -7.3125 -0.80078125 C-2.29046045 -1.10281429 -2.29046045 -1.10281429 0 0 Z M15 26 C14.01 27.485 14.01 27.485 13 29 C12.01 28.34 11.02 27.68 10 27 C10.66 29.97 11.32 32.94 12 36 C12.66 35.67 13.32 35.34 14 35 C14.68729254 32.88153715 14.68729254 32.88153715 15.125 30.4375 C15.29257813 29.61121094 15.46015625 28.78492188 15.6328125 27.93359375 C15.75398438 27.29550781 15.87515625 26.65742187 16 26 C15.67 26 15.34 26 15 26 Z " fill="#FFFFFF" transform="translate(106,65)"/>
<path d="M0 0 C4.76373308 3.5160887 9.2214045 8.04239891 10.625 13.9375 C11.4279968 20.44930215 10.50121374 25.57390192 6.625 30.9375 C2.82625575 34.90891445 -0.41654292 37.71550899 -6.08203125 38.140625 C-16.81577299 38.30264374 -16.81577299 38.30264374 -21.375 34.9375 C-26.3580501 30.06277707 -29.36257804 25.70755771 -29.75 18.625 C-29.58520772 12.78941439 -27.69436241 8.36228797 -23.65625 4.140625 C-16.84251469 -1.92244456 -8.71642401 -2.74405941 0 0 Z " fill="#FFFFFF" transform="translate(201.375,1.0625)"/>
<path d="M0 0 C4.80632615 2.81564629 8.57406222 6.05797022 10.31640625 11.484375 C12.03465366 18.87180999 11.43756738 24.36234757 7.421875 30.82421875 C4.62936155 34.51432581 1.9046628 36.63332267 -2.46875 38.0390625 C-8.99772281 38.8929176 -14.77642511 39.03578557 -20.53125 35.5390625 C-25.50588287 31.61605239 -27.96872405 27.64451275 -28.83984375 21.36328125 C-29.1231479 15.15634479 -28.42249348 9.97049799 -24.46875 5.0390625 C-17.82257471 -1.65008375 -8.87722983 -3.45537743 0 0 Z " fill="#FFFFFF" transform="translate(52.46875,0.9609375)"/>
<path d="M0 0 C4.94691609 2.91267022 8.68294331 6.50976743 10.52734375 12.04296875 C11.21689088 19.24381093 11.46815202 25.4770792 7.02734375 31.45703125 C2.67483302 36.05890457 -1.91684156 38.16924743 -8.16015625 38.35546875 C-14.12086249 38.27726706 -18.61159897 36.7001848 -23.0078125 32.6171875 C-27.40427978 27.65674191 -29.02902668 23.0439032 -28.84375 16.515625 C-27.91399641 10.32053004 -25.0245232 4.70686896 -19.97265625 0.91796875 C-13.93959671 -2.28138101 -6.33075422 -2.45029192 0 0 Z " fill="#FFFFFF" transform="translate(127.47265625,23.95703125)"/>
<path d="M0 0 C0.10151824 7.72286742 0.17151568 15.44556239 0.21972656 23.16894531 C0.23982715 25.79563833 0.26711204 28.42228669 0.30175781 31.04882812 C0.35034164 34.82693512 0.37298509 38.60444984 0.390625 42.3828125 C0.41127014 43.55490265 0.43191528 44.7269928 0.45318604 45.93460083 C0.45491679 52.2400161 0.36108178 56.26628778 -4 61 C-7.09985526 62.92693706 -8.83174654 63.00600905 -12.5 62.875 C-16.31676375 61.92080906 -18.1992823 60.71834365 -21 58 C-23.58487046 52.83025908 -22.65178184 45.04460873 -22.78955078 39.30859375 C-22.84611006 37.44957112 -22.92779288 35.59112811 -23.03564453 33.734375 C-23.88949252 18.74519395 -23.88949252 18.74519395 -20.75537109 14.19171143 C-17.30455779 10.67039265 -13.28168715 8.37914042 -9 6 C-7.39535145 4.82011996 -5.8058576 3.61851157 -4.25 2.375 C-1.12707182 0 -1.12707182 0 0 0 Z " fill="#FFFFFF" transform="translate(68,121)"/>
<path d="M0 0 C0.0992963 4.58978038 0.17166748 9.17892788 0.21972656 13.76953125 C0.23977222 15.32921244 0.26701657 16.88881913 0.30175781 18.44824219 C0.35059126 20.69745314 0.37303815 22.9456659 0.390625 25.1953125 C0.41127014 25.8861795 0.43191528 26.57704651 0.45318604 27.28884888 C0.45549329 32.33088966 -0.8705544 35.10588368 -4 39 C-7.21897087 41.77189158 -8.6935573 42 -13 42 C-17.24272173 41.27817589 -19.33326563 39.39402557 -22 36 C-24.04807049 29.85578852 -24.56615246 22.34453126 -23 16 C-19.97035012 11.9235424 -16.28453542 9.64130305 -12 7 C-10.31898794 5.66368283 -8.65083151 4.31092654 -7 2.9375 C-3.37641723 0 -3.37641723 0 0 0 Z " fill="#FFFFFF" transform="translate(42,142)"/>
<path d="M0 0 C0.33 0 0.66 0 1 0 C1.05399736 1.45792884 1.09279177 2.91642712 1.125 4.375 C1.14820313 5.18710938 1.17140625 5.99921875 1.1953125 6.8359375 C1 9 1 9 -1 11 C-1.22174933 9.54364629 -1.42698698 8.08477044 -1.625 6.625 C-1.74101562 5.81289062 -1.85703125 5.00078125 -1.9765625 4.1640625 C-1.98429688 3.44992188 -1.99203125 2.73578125 -2 2 C-1.34 1.34 -0.68 0.68 0 0 Z " fill="#FFFFFF" transform="translate(165,101)"/>
<path d="M0 0 C1.32 0 2.64 0 4 0 C3.67 1.32 3.34 2.64 3 4 C2.01 4 1.02 4 0 4 C0 2.68 0 1.36 0 0 Z " fill="#FFFFFF" transform="translate(117,66)"/>
</svg>
